<?xml version="1.0" encoding="utf-8"?>
<!-- Generator: Adobe Illustrator 27.7.0, SVG Export Plug-In . SVG Version: 6.00 Build 0)  -->
<svg version="1.1" id="Слой_3" xmlns="http://www.w3.org/2000/svg" xmlns:xlink="http://www.w3.org/1999/xlink" x="0px" y="0px"
	 viewBox="0 0 595.28 841.89" style="enable-background:new 0 0 595.28 841.89;" xml:space="preserve">
<style type="text/css">
	.st0{fill:#FFFFFF;}
</style>
<g>
	<path class="st0" d="M182.95,386.5c0.01-1.14-0.27-1.46-1.44-1.46c-24.66,0.04-49.32,0.03-73.98,0.03c-0.48,0-0.96-0.06-1.41,0.16
		c0,7.43,0,14.87,0,22.3c0.49,0.23,1.02,0.16,1.53,0.16c7.67,0,15.35,0,23.02,0c1.91,0,1.91,0,1.91,1.89
		c0,44.83,0.01,89.65-0.03,134.48c0,1.21,0.29,1.54,1.52,1.53c6.91-0.06,13.83-0.03,20.74-0.03c1.95,0,1.72,0.23,1.72-1.72
		c0-44.87,0-89.73,0-134.6c0-1.54,0-1.54,1.55-1.54c7.79,0,15.59-0.02,23.38,0.03c1.13,0.01,1.49-0.24,1.48-1.43
		C182.89,399.68,182.9,393.09,182.95,386.5z"/>
	<path class="st0" d="M117.45,380.06c0-9.43,0-18.86,0-28.28c0-1.79-0.18-1.56,1.5-1.56c2.88-0.01,5.76,0.06,8.63-0.03
		c1.18-0.04,1.44,0.3,1.43,1.45c-0.05,9.67-0.01,19.34-0.05,29c0,1.01,0.27,1.28,1.26,1.25c2.84-0.07,5.68-0.08,8.51,0
		c1.17,0.04,1.54-0.21,1.53-1.47c-0.06-9.95-0.03-19.9-0.03-29.84c0-13.14-0.01-26.29,0.02-39.43c0-1.09-0.17-1.52-1.4-1.48
		c-2.79,0.11-5.6,0.1-8.39,0c-1.21-0.04-1.52,0.28-1.51,1.5c0.06,9.27,0.02,18.54,0.05,27.81c0,0.92-0.22,1.22-1.19,1.2
		c-2.88-0.07-5.75-0.02-8.63-0.02c-1.74,0-1.74,0-1.74-1.69c0-9.07-0.02-18.14,0.03-27.21c0.01-1.19-0.21-1.64-1.53-1.6
		c-3.27,0.11-6.55,0.03-9.83,0.03c0,24.06,0,48.11,0,72.17c3.16,0,6.31,0,9.47,0C117.44,381.86,117.45,381.86,117.45,380.06z"/>
	<path class="st0" d="M466.66,307.59c2.8,0.59,5.62,0.55,8.45,0.19c6.65-0.85,10.87-5.77,10.69-12.47c-3.12,0-6.24,0-9.35,0
		c-0.34,0.66-0.24,1.4-0.4,2.09c-0.38,1.59-1.36,2.56-2.92,2.96c-1.06,0.27-2.11,0.29-3.19,0.05c-1.79-0.4-2.81-1.45-3.18-3.26
		c-0.13-0.62-0.03-1.28-0.38-1.85c-3.12,0-6.24,0-9.35,0c-0.11,0.89,0.11,1.75,0.27,2.61C458.26,303.32,461.3,306.47,466.66,307.59z
		"/>
	<path class="st0" d="M348.45,385.04c-5.46,0.03-10.93,0.03-16.39,0.01c2.56,2.22,4.22,5.01,4.61,8.43c0.23,1.99,1.42,2.5,2.95,2.87
		c1.38,0.33,2.79,0.56,4.17,0.89c2.01,0.48,3.84,0.72,5.96-0.2c0-3.58,0-7.15,0-10.73C349.74,385.29,349.43,385.04,348.45,385.04z"
		/>
	<path class="st0" d="M345.4,513.78c0.74-2.24,1.51-4.66,1.36-6.95c-0.13-2.04-1.19-4.21-2.4-5.93c-1.22-1.72-3-3.14-4.77-4.36
		c-4.24-2.92-6.16-7.38-8.12-11.8c-0.95-2.16-1.73-4.46-2.14-6.77c-0.63-3.59-3.36-4.56-6.16-5.37c-6.76-1.95-13.51-3.96-20.37-5.48
		c-2.23-0.49-4.83,0.27-7.18,0.78c-3.82,0.84-5.2-0.19-7.01-3.4c-1.46-2.59-3.9-4.79-6.32-6.61c-0.84-0.63-3.01,0.18-4.44,0.69
		c-1.03,0.37-2.06,0.74-3.09,1.1c0,1.87,0,3.74,0,5.61c0,26.29,0.01,52.58-0.02,78.88c0,1.08,0.25,1.42,1.37,1.41
		c7.03-0.05,14.07-0.06,21.1,0c1.23,0.01,1.5-0.33,1.5-1.53c-0.04-22.66-0.02-45.31-0.05-67.97c0-1.15,0.19-1.55,1.47-1.54
		c8.07,0.07,16.15,0.06,24.22,0.01c1.2-0.01,1.5,0.28,1.5,1.5c-0.04,22.74-0.02,45.47-0.06,68.21c0,1.06,0.27,1.33,1.32,1.32
		c7.11-0.05,14.23-0.04,21.34,0c0.99,0.01,1.28-0.27,1.28-1.27c0-8.85,0-17.69,0-26.54c-0.84-0.16-1.68-0.35-2.51-0.52
		C345.32,516.84,344.74,515.8,345.4,513.78z"/>
	<path class="st0" d="M280.25,406.36c2.07-4.01,4.01-8.15,5.39-12.43c0.89-2.78,0.83-5.87,1.04-8.86c-3.47,0-6.95-0.01-10.42-0.04
		c-1.18-0.01-1.53,0.24-1.53,1.5c0.02,9.79,0.02,19.58,0.02,29.38C276.63,412.75,278.57,409.62,280.25,406.36z"/>
	<path class="st0" d="M335.58,409.24c-1.42,0.16-3-0.19-4.36-0.7c-1.79-0.67-3.09-0.28-4.16,1.13c-0.41,0.54-0.83,1.08-1.24,1.62
		c0.01,13.35,0.01,26.7,0.03,40.05c1.55,1.48,3.02,3.06,4.42,4.72c0.5,0.59,1.21,1.04,1.89,1.44c3.05,1.79,4.21,4.79,5.66,7.81
		c2.09,4.34,4.74,8.44,7.38,12.49c1.9,2.92,3.27,6.06,4.54,9.24c0-26.71-0.01-53.42,0-80.13c-1.13,0.21-2.26,0.41-3.39,0.59
		C342.76,408.09,339.19,408.84,335.58,409.24z"/>
	<path class="st0" d="M255.31,474.57c-0.02-2.58-0.03-5.16-0.04-7.74c-0.78,0.3-1.56,0.59-2.33,0.89
		c-6.66,2.6-13.26,5.35-19.82,8.18c6.93,0,13.85,0.01,20.78,0.02C254.94,475.93,255.32,475.72,255.31,474.57z"/>
	<path class="st0" d="M259.59,385.03c-22.02,0.04-44.04,0.03-66.07,0.03c-1.59,0-1.6,0-1.6,1.62c0,26.21,0,52.42,0,78.63
		c0,9.57,0,19.15,0,28.72c1.58-1.41,3.13-2.84,4.58-4.38c5.17-5.46,9.84-11.4,15.1-16.78c2.57-2.63,5.76-4.85,9.04-6.53
		c5.31-2.73,10.13-5.96,14.39-10.16c1.02-1.01,2.13-1.94,3.26-2.85c-6.99,0-13.98,0.01-20.98,0.03c-1.13,0-1.46-0.24-1.46-1.43
		c0.04-14.26,0.05-28.53,0-42.79c0-1.22,0.32-1.51,1.52-1.5c14.15,0.04,28.3,0.02,42.45,0.05c1,0,1.26-0.26,1.26-1.26
		c-0.04-6.63-0.05-13.27,0.01-19.9C261.1,385.35,260.82,385.03,259.59,385.03z"/>
	<path class="st0" d="M259.72,521.57c-14.15,0.04-28.3,0.01-42.45,0.05c-1.08,0-1.41-0.26-1.41-1.38c0.03-10.5,0.03-21,0.01-31.49
		c-2.09,1.26-4.25,2.44-6.33,3.72c-3.57,2.2-7.03,4.64-10.31,7.26c-2.19,1.74-3.62,4.22-4.07,7.05c-0.43,2.71-1.58,4.34-3.23,5.28
		c0,10.71,0,21.42,0,32.13c0,0.83-0.04,1.39,1.14,1.39c22.3-0.04,44.6-0.03,66.91-0.01c0.93,0,1.12-0.29,1.11-1.16
		c-0.03-7.15-0.04-14.3,0.01-21.46C261.09,521.87,260.82,521.57,259.72,521.57z"/>
	<path class="st0" d="M489.41,500.2c0.03-0.99-0.23-1.27-1.25-1.27c-7.07,0.05-14.15,0.05-21.22,0c-1.14-0.01-1.48,0.27-1.48,1.45
		c0,3.67,0.32,7.36-0.29,11.01c-0.75,4.48-2.74,8.15-7.09,10.13c-3.11,1.42-6.36,1.69-9.72,1.16c-3.96-0.62-6.7-2.72-8.27-6.43
		c-1.2-2.85-1.72-5.81-1.73-8.86c-0.02-13.7-0.01-27.41-0.01-41.11c0-13.66-0.01-27.33,0.01-40.99c0.01-3.16,0.46-6.27,1.33-9.32
		c1.37-4.78,4.39-7.54,9.37-8.12c4.39-0.51,8.5,0.03,11.72,3.41c2.92,3.07,4.43,6.81,4.62,11.02c0.13,2.83,0.08,5.67,0.06,8.51
		c0,0.76,0.2,1.04,1.01,1.03c7.31-0.03,14.63-0.03,21.94,0c0.82,0,0.98-0.29,0.98-1.04c-0.04-2.92-0.03-5.83-0.01-8.75
		c0.02-3.77-0.41-7.5-1.47-11.12c-3.26-11.22-9.78-19.74-20.74-24.37c-7.11-3-14.58-3.42-22.12-2.22
		c-8.87,1.41-16.39,5.43-22.21,12.36c-6.03,7.17-8.45,15.62-8.45,24.84c-0.02,28.57-0.01,57.14,0,85.7c0,3.39,0.11,6.79,0.66,10.15
		c1.66,10.05,6.62,18.02,15.13,23.69c5.4,3.59,11.53,4.92,17.86,5.58c10.79,1.12,20.35-1.78,28.45-9.01
		c7.24-6.46,11.61-14.53,12.66-24.25C489.66,508.99,489.27,504.58,489.41,500.2z"/>
	<path class="st0" d="M393.36,385.03c-7.11,0.06-14.23,0.05-21.34,0.01c-0.98-0.01-1.29,0.25-1.29,1.26c0,2.95,0,5.89,0,8.84
		c1.93,0.46,3.71,1.55,5.42,2.94c3.79-3.71,8.24-4.8,13.26-3.5c1.5,0.39,3,1.02,4.32,1.83c0.39,0.24,0.71,0.52,1,0.81
		c0-3.6,0-7.2,0-10.79C394.73,385.38,394.5,385.02,393.36,385.03z"/>
	<path class="st0" d="M394.73,405.24c-1.24,1.74-3.22,2.84-5.46,3.16c-3.41,0.48-6.9,0.37-10.35,0.5c-0.2,0.01-0.54-0.18-0.59-0.34
		c-1.13-3.35-4.25-2.57-6.55-2.81c-0.36-0.04-0.7-0.09-1.04-0.15c0.01,34.26,0.01,68.52,0,102.78c0.23,0.02,0.46,0.04,0.69,0.06
		c2.19,0.23,3.81,1.56,3.92,3.53c0.06,1.06-1.4,2.75-2.55,3.22c-0.67,0.27-1.36,0.51-2.06,0.72c0,9.46,0,18.92,0,28.38
		c0,0.98,0.26,1.29,1.27,1.28c7.03-0.04,14.07-0.02,21.1-0.02c1.8,0,1.61,0.18,1.61-1.6c0-26.17,0-52.34,0-78.51
		C394.71,445.37,394.72,425.3,394.73,405.24z"/>
	<path class="st0" d="M420.39,381.88c0.82,0.02,1.16-0.22,1.39-1.02c2.37-8.28,4.78-16.54,7.18-24.8
		c1.61-5.54,3.22-11.08,4.83-16.62c0.1,0,0.2,0,0.29-0.01c0,0.47,0,0.94,0,1.4c0,13.26,0.01,26.53-0.02,39.79
		c0,0.99,0.25,1.28,1.25,1.26c2.92-0.07,5.84-0.07,8.75,0c1.08,0.03,1.4-0.25,1.39-1.37c-0.04-16.06-0.03-32.12-0.03-48.18
		c0-7.15-0.02-14.3,0.02-21.45c0-0.92-0.22-1.23-1.19-1.21c-2.88,0.07-5.76,0.09-8.63-0.01c-1.15-0.04-1.55,0.36-1.85,1.41
		c-3.51,12.3-7.07,24.59-10.62,36.87c-0.44,1.51-0.9,3.01-1.35,4.51c-0.08-0.02-0.15-0.03-0.23-0.04c0-0.42,0-0.84,0-1.26
		c0-13.42-0.01-26.85,0.02-40.27c0-0.91-0.2-1.23-1.17-1.21c-3,0.07-6,0.07-8.99,0c-0.98-0.02-1.19,0.3-1.17,1.21
		c0.06,2.64,0.02,5.27,0.02,7.91c0,20.58,0.01,41.15-0.03,61.73c0,1.11,0.3,1.39,1.38,1.36
		C414.55,381.81,417.47,381.82,420.39,381.88z"/>
	<path class="st0" d="M453.9,337.42c0,14.42,0.01,28.85-0.02,43.27c0,0.95,0.25,1.2,1.19,1.18c2.96-0.06,5.92-0.05,8.87,0
		c0.8,0.01,1.18-0.18,1.41-1c2.24-7.86,4.52-15.7,6.79-23.55c1.75-6.04,3.52-12.08,5.27-18.13c0.08,0,0.17,0,0.25,0
		c0,4.1,0,8.21,0,12.31c0,9.71,0.02,19.42-0.02,29.13c0,1.01,0.28,1.26,1.26,1.24c2.96-0.07,5.92-0.06,8.87,0
		c0.86,0.01,1.22-0.15,1.15-1.1c-0.09-1.23-0.02-2.48-0.02-3.71c0-21.98-0.01-43.95,0.03-65.93c0-1.26-0.36-1.5-1.52-1.46
		c-2.84,0.08-5.68,0.06-8.51,0.01c-0.86-0.02-1.23,0.24-1.48,1.09c-3.02,10.58-6.09,21.14-9.14,31.71
		c-0.97,3.35-1.94,6.7-2.92,10.05c-0.07-0.01-0.14-0.02-0.21-0.03c0-0.42,0-0.84,0-1.26c0-13.39-0.01-26.77,0.02-40.16
		c0-1.02-0.15-1.45-1.32-1.41c-2.91,0.1-5.84,0.08-8.75,0.01c-1.03-0.03-1.23,0.29-1.23,1.26
		C453.92,319.76,453.9,328.59,453.9,337.42z"/>
	<path class="st0" d="M401.82,345.86c0-11.67-0.01-23.33,0.02-35c0-0.94-0.24-1.21-1.19-1.19c-2.76,0.06-5.51,0.02-8.27,0.02
		c-1.86,0-1.86,0-1.86,1.8c0,9.03,0,18.06,0,27.09c0,1.79,0.18,1.55-1.5,1.56c-2.88,0.01-5.76-0.05-8.63,0.03
		c-1.08,0.03-1.39-0.26-1.38-1.36c0.05-9.31,0.01-18.62,0.05-27.92c0-0.91-0.18-1.24-1.17-1.21c-3.04,0.07-6.07,0.06-9.11,0.01
		c-0.86-0.01-1.06,0.26-1.06,1.08c0.04,4.27,0.02,8.55,0.02,12.82c0,19.02,0.01,38.03-0.02,57.05c0,1,0.25,1.28,1.25,1.25
		c2.84-0.07,5.68-0.08,8.51,0c1.2,0.04,1.6-0.22,1.59-1.53c-0.06-9.63-0.01-19.26-0.06-28.88c-0.01-1.1,0.31-1.32,1.33-1.29
		c2.92,0.07,5.84,0.08,8.75,0c1.13-0.03,1.47,0.24,1.46,1.43c-0.05,9.71-0.02,19.42-0.05,29.12c0,0.86,0.17,1.17,1.11,1.15
		c3-0.06,5.99-0.07,8.99,0c1.02,0.02,1.24-0.28,1.24-1.27C401.81,369.03,401.82,357.45,401.82,345.86z"/>
	<path class="st0" d="M278.89,381.87c1.4,0.02,2.75-0.11,4.04-0.4c-1.6-0.94-3.21-1.87-4.84-2.72c0,0.77,0,1.54-0.01,2.3
		C278.08,381.68,278.26,381.86,278.89,381.87z"/>
	<path class="st0" d="M295.56,368.76c0.39-1.07,0.72-2.18,0.97-3.32c1.76-7.79,2.2-15.72,2.32-23.67c0.1-6.95,0.04-13.91,0-20.86
		c0-0.92,0.21-1.24,1.18-1.21c2.2,0.07,4.4,0.06,6.59,0c0.87-0.02,1.23,0.18,1.16,1.12c-0.08,1.15-0.02,2.32-0.02,3.47
		c0,15.29,0,30.59-0.02,45.88c1.02,0.52,2.09,1.06,3.26,1.64c0-3.17,0.02-5.97,0-8.76c-0.02-3.52,1.52-6.11,4.56-7.84
		c0.41-0.23,0.87-0.44,1.19-0.77c0.73-0.76,1.51-1.3,2.31-1.67c0-2.32,0-4.65,0-6.97c0-11.63-0.01-23.26,0.02-34.88
		c0-0.99-0.24-1.26-1.24-1.26c-9.43,0.04-18.87,0.04-28.3,0c-0.97,0-1.17,0.29-1.17,1.2c0.04,5.75,0.04,11.51,0.02,17.26
		c-0.04,9.18,0.28,18.37-0.71,27.53c-0.34,3.13-0.73,6.28-1.98,9.21c-0.69,1.63-1.58,3.06-2.8,4.09
		C287.11,369.11,291.39,369.85,295.56,368.76z"/>
	<path class="st0" d="M175.66,337c-1.95-8.72-3.9-17.43-5.81-26.15c-0.19-0.88-0.52-1.23-1.49-1.18c-1.87,0.1-3.76,0.03-5.63,0.03
		c-2.56,0-2.56,0-3.12,2.51c-4.06,18.13-8.11,36.26-12.17,54.39c-1.13,5.05-2.24,10.11-3.39,15.26c3.64,0,7.2-0.01,10.75,0.01
		c0.65,0,0.65-0.42,0.73-0.86c0.87-4.42,1.77-8.84,2.59-13.27c0.16-0.86,0.43-1.2,1.36-1.19c3.56,0.06,7.12,0.06,10.67,0
		c0.96-0.02,1.29,0.31,1.46,1.22c0.82,4.39,1.73,8.76,2.54,13.15c0.14,0.77,0.41,0.96,1.15,0.95c3-0.04,6-0.01,8.99-0.02
		c1.4,0,1.39,0,1.09-1.33C182.15,366.02,178.9,351.51,175.66,337z M168.26,355.93c-2.24-0.05-4.47-0.06-6.71,0.01
		c-0.99,0.03-1.14-0.34-0.97-1.19c1.07-5.43,2.12-10.87,3.18-16.31c0.31-1.6,0.63-3.2,0.94-4.8c0.07-0.01,0.14-0.02,0.2-0.03
		c0.34,1.74,0.67,3.48,1.01,5.22c1.04,5.36,2.06,10.72,3.14,16.07C169.22,355.71,169.1,355.94,168.26,355.93z"/>
	<path class="st0" d="M348.57,339.48c-2.74-0.65-5.53-0.78-8.33-0.67c-1.18,0.04-1.44-0.34-1.44-1.47
		c0.05-8.83,0.01-17.65,0.05-26.48c0-0.95-0.26-1.21-1.2-1.19c-2.88,0.06-5.75,0.08-8.63-0.01c-1.16-0.03-1.53,0.21-1.53,1.47
		c0.06,11.5,0.03,23.01,0.03,34.51c0,2.47,0,4.94,0,7.41c4.4,1.38,7.72,4,8.93,8.86c0.23,0.93,0.36,2.47-0.16,2.91
		c-2.61,2.19-3.04,5.28-3.29,8.19c-0.25,3.02-1.83,5.05-3.6,7.05c-0.61,0.69-0.91,1.25-0.8,1.79c5.64-0.12,11.29,0.27,16.93-0.26
		c7.7-0.73,12.95-5.31,14.56-12.87c1.17-5.48,0.92-11.03,0.31-16.56C359.72,346,355.33,341.08,348.57,339.48z M350.11,360.72
		c-0.02,1.12-0.05,2.24-0.2,3.34c-0.62,4.44-2.89,6.43-7.37,6.53c-0.84,0.02-1.68-0.05-2.52,0.02c-0.92,0.08-1.24-0.2-1.22-1.17
		c0.06-3.23,0.02-6.47,0.02-9.71c0-3.24,0.02-6.47-0.02-9.71c-0.01-0.81,0.19-1.16,1.06-1.11c1.71,0.1,3.43-0.1,5.13,0.26
		c2.26,0.47,3.66,1.8,4.36,3.96C350.17,355.62,350.16,358.17,350.11,360.72z"/>
	<path class="st0" d="M202.79,382.24c7.68,1.28,15.13-2.54,18.51-9.55c1.8-3.74,1.64-7.67,1.63-11.61c0-0.76-0.55-0.54-0.94-0.54
		c-3.12-0.01-6.24,0.02-9.35-0.03c-0.8-0.01-1,0.23-0.99,1.01c0.01,1.71,0.15,3.43-0.2,5.14c-0.56,2.76-2.6,4.43-5.54,4.5
		c-3.11,0.07-4.71-1.11-5.45-4.08c-0.19-0.77-0.31-1.56-0.31-2.37c0.01-12.39,0-24.77,0.01-37.16c0-1.57,0.31-3.09,0.89-4.55
		c0.51-1.29,1.44-2.07,2.76-2.43c3.65-1.01,6.83,0.95,7.64,4.69c0.36,1.66,0.21,3.34,0.21,5.02c0,0.63,0.2,0.83,0.82,0.82
		c3.24-0.02,6.47-0.02,9.71,0c0.57,0,0.77-0.19,0.75-0.76c-0.03-1.52,0.01-3.04-0.03-4.55c-0.22-7.99-5.65-15.83-15.05-16.66
		c-10.58-0.93-19,6.22-18.98,16.75c0.01,6.63,0,13.26,0,19.9c0,6.63,0,13.26,0,19.9c0,2.25,0.24,4.48,1.08,6.58
		C192.28,378.04,196.62,381.22,202.79,382.24z"/>
	<path class="st0" d="M224.05,319.09c-0.02,0.9,0.17,1.25,1.17,1.23c2.96-0.07,5.91-0.03,8.87-0.02c1.94,0.01,1.73-0.22,1.73,1.72
		c0,8.99-0.01,17.99-0.01,26.98c0.67,0,1.34-0.01,2.01-0.03c-0.23-1.3-0.38-2.11-0.62-3.45c1.86,1.27,3.19,2.42,4.71,3.19
		c1.73,0.87,3.47,1.72,5.21,2.57c0-0.05,0-0.09,0-0.14c0-9.87,0.01-19.73-0.02-29.6c0-0.98,0.24-1.29,1.25-1.27
		c3.16,0.07,6.31,0,9.47,0.04c0.8,0.01,1.11-0.16,1.1-1.04c-0.06-2.87-0.05-5.75,0-8.63c0.02-0.84-0.3-0.97-1.03-0.96
		c-10.91,0.02-21.82,0.03-32.72-0.01c-0.93,0-1.13,0.28-1.11,1.15C224.1,313.58,224.1,316.33,224.05,319.09z"/>
	<path class="st0" d="M245.67,358c-0.59-0.47-1.39-0.8-2.14-0.91c-2.57-0.38-5.14-0.72-7.72-1.05c0,8.19,0,16.38-0.01,24.58
		c0,0.97,0.2,1.3,1.23,1.27c2.95-0.07,5.91-0.07,8.87,0c1.02,0.02,1.24-0.29,1.24-1.27c-0.03-7.16-0.03-14.31-0.02-21.47
		C246.64,358.77,246.15,358.39,245.67,358z"/>
	<path class="st0" d="M273.92,376.86c-3.96-1.56-7.78-3.32-11.36-5.47c0,3.09,0,6.18,0,9.27c0,0.89,0.16,1.25,1.17,1.23
		c3.04-0.07,6.08-0.07,9.11,0c0.95,0.02,1.14-0.31,1.11-1.16C273.9,379.43,273.92,378.14,273.92,376.86z"/>
	<path class="st0" d="M262.58,345.66c0,4.41-0.01,8.82-0.01,13.23c0.39,0.2,0.79,0.39,1.18,0.59c3.49,1.8,6.63,4.28,10.08,6.17
		c0.03,0.02,0.07,0.04,0.1,0.06c0-18.21,0-36.42,0.01-54.63c0-0.89,0.01-1.46-1.22-1.42c-2.95,0.11-5.92,0.1-8.87,0
		c-1.12-0.04-1.29,0.35-1.29,1.35C262.59,322.56,262.58,334.11,262.58,345.66z"/>
</g>
</svg>
